<mxfile host="Electron" agent="Mozilla/5.0 (Windows NT 10.0; Win64; x64) AppleWebKit/537.36 (KHTML, like Gecko) draw.io/26.1.1 Chrome/132.0.6834.210 Electron/34.3.3 Safari/537.36" version="26.1.1">
  <diagram id="R2lEEEUBdFMjLlhIrx00" name="Page-1">
    <mxGraphModel dx="2412" dy="2466" grid="1" gridSize="10" guides="1" tooltips="1" connect="1" arrows="1" fold="1" page="1" pageScale="1" pageWidth="1100" pageHeight="850" math="0" shadow="0" extFonts="Permanent Marker^https://fonts.googleapis.com/css?family=Permanent+Marker">
      <root>
        <mxCell id="0" />
        <mxCell id="1" parent="0" />
        <mxCell id="C-vyLk0tnHw3VtMMgP7b-1" value="" style="endArrow=ERoneToMany;startArrow=ERone;endFill=0;startFill=0;rounded=0;exitX=1;exitY=0.5;exitDx=0;exitDy=0;entryX=0;entryY=0.5;entryDx=0;entryDy=0;" parent="1" source="_9EYiNdy4eU5hPXUOPR3-1" target="_9EYiNdy4eU5hPXUOPR3-2" edge="1">
          <mxGeometry width="100" height="100" relative="1" as="geometry">
            <mxPoint x="1782.5" y="220" as="sourcePoint" />
            <mxPoint x="1440" y="705" as="targetPoint" />
          </mxGeometry>
        </mxCell>
        <mxCell id="_9EYiNdy4eU5hPXUOPR3-1" value="USER" style="rounded=0;whiteSpace=wrap;html=1;fillColor=#ffcccc;strokeColor=#36393d;" parent="1" vertex="1">
          <mxGeometry x="1040" y="165" width="140" height="70" as="geometry" />
        </mxCell>
        <mxCell id="_9EYiNdy4eU5hPXUOPR3-2" value="PET" style="rounded=0;whiteSpace=wrap;html=1;fillColor=#ffcccc;strokeColor=#36393d;" parent="1" vertex="1">
          <mxGeometry x="1860" y="165" width="140" height="70" as="geometry" />
        </mxCell>
        <mxCell id="_9EYiNdy4eU5hPXUOPR3-3" value="POST" style="rounded=0;whiteSpace=wrap;html=1;fillColor=#ffcccc;strokeColor=#36393d;" parent="1" vertex="1">
          <mxGeometry x="200" y="165" width="140" height="70" as="geometry" />
        </mxCell>
        <mxCell id="_9EYiNdy4eU5hPXUOPR3-4" value="COMMENT" style="rounded=0;whiteSpace=wrap;html=1;fillColor=#ffcccc;strokeColor=#36393d;" parent="1" vertex="1">
          <mxGeometry x="660" y="720" width="140" height="70" as="geometry" />
        </mxCell>
        <mxCell id="_9EYiNdy4eU5hPXUOPR3-5" value="LIKES" style="rounded=0;whiteSpace=wrap;html=1;fillColor=#ffcccc;strokeColor=#36393d;" parent="1" vertex="1">
          <mxGeometry x="1035" y="720" width="140" height="70" as="geometry" />
        </mxCell>
        <mxCell id="_9EYiNdy4eU5hPXUOPR3-6" value="FRIENDSHIP" style="rounded=0;whiteSpace=wrap;html=1;fillColor=#ffcccc;strokeColor=#36393d;" parent="1" vertex="1">
          <mxGeometry x="1860" y="720" width="140" height="70" as="geometry" />
        </mxCell>
        <mxCell id="_9EYiNdy4eU5hPXUOPR3-7" value="MESSAGE" style="rounded=0;whiteSpace=wrap;html=1;fillColor=#ffcccc;strokeColor=#36393d;" parent="1" vertex="1">
          <mxGeometry x="1480" y="721.25" width="140" height="72.5" as="geometry" />
        </mxCell>
        <mxCell id="_9EYiNdy4eU5hPXUOPR3-8" value="VETERINARIAN" style="rounded=0;whiteSpace=wrap;html=1;fillColor=#ffcccc;strokeColor=#36393d;" parent="1" vertex="1">
          <mxGeometry x="200" y="720" width="140" height="70" as="geometry" />
        </mxCell>
        <mxCell id="_9EYiNdy4eU5hPXUOPR3-10" value="&lt;u&gt;UserId&lt;/u&gt;" style="ellipse;whiteSpace=wrap;html=1;fillColor=#d5e8d4;strokeColor=#82b366;gradientColor=#97d077;" parent="1" vertex="1">
          <mxGeometry x="800" y="120" width="100" height="60" as="geometry" />
        </mxCell>
        <mxCell id="_9EYiNdy4eU5hPXUOPR3-11" value="" style="endArrow=none;html=1;rounded=0;exitX=0;exitY=0;exitDx=0;exitDy=0;entryX=0.979;entryY=0.7;entryDx=0;entryDy=0;entryPerimeter=0;" parent="1" source="_9EYiNdy4eU5hPXUOPR3-1" target="_9EYiNdy4eU5hPXUOPR3-10" edge="1">
          <mxGeometry width="50" height="50" relative="1" as="geometry">
            <mxPoint x="250" y="160" as="sourcePoint" />
            <mxPoint x="220" y="110" as="targetPoint" />
          </mxGeometry>
        </mxCell>
        <mxCell id="_9EYiNdy4eU5hPXUOPR3-13" value="UserType" style="ellipse;whiteSpace=wrap;html=1;fillColor=#d5e8d4;gradientColor=#97d077;strokeColor=#82b366;" parent="1" vertex="1">
          <mxGeometry x="1260" y="50" width="100" height="60" as="geometry" />
        </mxCell>
        <mxCell id="_9EYiNdy4eU5hPXUOPR3-14" value="Password" style="ellipse;whiteSpace=wrap;html=1;fillColor=#d5e8d4;gradientColor=#97d077;strokeColor=#82b366;" parent="1" vertex="1">
          <mxGeometry x="970" y="-10" width="100" height="60" as="geometry" />
        </mxCell>
        <mxCell id="_9EYiNdy4eU5hPXUOPR3-15" value="Email" style="ellipse;whiteSpace=wrap;html=1;fillColor=#d5e8d4;gradientColor=#97d077;strokeColor=#82b366;" parent="1" vertex="1">
          <mxGeometry x="855" y="-10" width="100" height="60" as="geometry" />
        </mxCell>
        <mxCell id="_9EYiNdy4eU5hPXUOPR3-16" value="Name" style="ellipse;whiteSpace=wrap;html=1;fillColor=#d5e8d4;gradientColor=#97d077;strokeColor=#82b366;" parent="1" vertex="1">
          <mxGeometry x="790" y="50" width="100" height="60" as="geometry" />
        </mxCell>
        <mxCell id="_9EYiNdy4eU5hPXUOPR3-17" value="RegistrationDate" style="ellipse;whiteSpace=wrap;html=1;fillColor=#d5e8d4;gradientColor=#97d077;strokeColor=#82b366;" parent="1" vertex="1">
          <mxGeometry x="1280" y="115" width="100" height="60" as="geometry" />
        </mxCell>
        <mxCell id="_9EYiNdy4eU5hPXUOPR3-18" value="City" style="ellipse;whiteSpace=wrap;html=1;fillColor=#d5e8d4;gradientColor=#97d077;strokeColor=#82b366;" parent="1" vertex="1">
          <mxGeometry x="1160" y="10" width="100" height="60" as="geometry" />
        </mxCell>
        <mxCell id="_9EYiNdy4eU5hPXUOPR3-20" value="&lt;u&gt;PetID&lt;/u&gt;" style="ellipse;whiteSpace=wrap;html=1;fillColor=#d5e8d4;gradientColor=#97d077;strokeColor=#82b366;" parent="1" vertex="1">
          <mxGeometry x="1610" y="120" width="100" height="60" as="geometry" />
        </mxCell>
        <mxCell id="_9EYiNdy4eU5hPXUOPR3-21" value="Name" style="ellipse;whiteSpace=wrap;html=1;fillColor=#d5e8d4;gradientColor=#97d077;strokeColor=#82b366;" parent="1" vertex="1">
          <mxGeometry x="1620" y="50" width="100" height="60" as="geometry" />
        </mxCell>
        <mxCell id="_9EYiNdy4eU5hPXUOPR3-22" value="Species" style="ellipse;whiteSpace=wrap;html=1;fillColor=#d5e8d4;gradientColor=#97d077;strokeColor=#82b366;" parent="1" vertex="1">
          <mxGeometry x="1720" y="30" width="100" height="60" as="geometry" />
        </mxCell>
        <mxCell id="_9EYiNdy4eU5hPXUOPR3-23" value="Breed" style="ellipse;whiteSpace=wrap;html=1;fillColor=#d5e8d4;gradientColor=#97d077;strokeColor=#82b366;" parent="1" vertex="1">
          <mxGeometry x="1830" y="30" width="100" height="60" as="geometry" />
        </mxCell>
        <mxCell id="_9EYiNdy4eU5hPXUOPR3-26" value="Age" style="ellipse;whiteSpace=wrap;html=1;fillColor=#d5e8d4;gradientColor=#97d077;strokeColor=#82b366;" parent="1" vertex="1">
          <mxGeometry x="1940" y="30" width="100" height="60" as="geometry" />
        </mxCell>
        <mxCell id="_9EYiNdy4eU5hPXUOPR3-27" value="Gender" style="ellipse;whiteSpace=wrap;html=1;fillColor=#d5e8d4;gradientColor=#97d077;strokeColor=#82b366;" parent="1" vertex="1">
          <mxGeometry x="2050" y="70" width="100" height="60" as="geometry" />
        </mxCell>
        <mxCell id="_9EYiNdy4eU5hPXUOPR3-28" value="OwnerID" style="ellipse;whiteSpace=wrap;html=1;fillColor=#d5e8d4;gradientColor=#97d077;strokeColor=#82b366;" parent="1" vertex="1">
          <mxGeometry x="2070" y="150" width="100" height="60" as="geometry" />
        </mxCell>
        <mxCell id="_9EYiNdy4eU5hPXUOPR3-29" value="RegistrationDate" style="ellipse;whiteSpace=wrap;html=1;fillColor=#d5e8d4;gradientColor=#97d077;strokeColor=#82b366;" parent="1" vertex="1">
          <mxGeometry x="2080" y="220" width="100" height="60" as="geometry" />
        </mxCell>
        <mxCell id="_9EYiNdy4eU5hPXUOPR3-31" value="Content" style="ellipse;whiteSpace=wrap;html=1;fillColor=#d5e8d4;gradientColor=#97d077;strokeColor=#82b366;" parent="1" vertex="1">
          <mxGeometry x="30" y="140" width="100" height="60" as="geometry" />
        </mxCell>
        <mxCell id="_9EYiNdy4eU5hPXUOPR3-32" value="CreatedAt" style="ellipse;whiteSpace=wrap;html=1;fillColor=#d5e8d4;gradientColor=#97d077;strokeColor=#82b366;" parent="1" vertex="1">
          <mxGeometry x="180" y="30" width="100" height="60" as="geometry" />
        </mxCell>
        <mxCell id="_9EYiNdy4eU5hPXUOPR3-33" value="UserID" style="ellipse;whiteSpace=wrap;html=1;fillColor=#d5e8d4;gradientColor=#97d077;strokeColor=#82b366;" parent="1" vertex="1">
          <mxGeometry x="290" y="30" width="100" height="60" as="geometry" />
        </mxCell>
        <mxCell id="_9EYiNdy4eU5hPXUOPR3-34" value="&lt;u&gt;PostID&lt;/u&gt;" style="ellipse;whiteSpace=wrap;html=1;fillColor=#d5e8d4;gradientColor=#97d077;strokeColor=#82b366;" parent="1" vertex="1">
          <mxGeometry x="20" y="230" width="100" height="60" as="geometry" />
        </mxCell>
        <mxCell id="_9EYiNdy4eU5hPXUOPR3-35" value="ImageURL" style="ellipse;whiteSpace=wrap;html=1;fillColor=#d5e8d4;gradientColor=#97d077;strokeColor=#82b366;" parent="1" vertex="1">
          <mxGeometry x="70" y="50" width="100" height="60" as="geometry" />
        </mxCell>
        <mxCell id="_9EYiNdy4eU5hPXUOPR3-37" value="&lt;u&gt;LikeID&lt;/u&gt;" style="ellipse;whiteSpace=wrap;html=1;fillColor=#d5e8d4;gradientColor=#97d077;strokeColor=#82b366;" parent="1" vertex="1">
          <mxGeometry x="950" y="820" width="100" height="60" as="geometry" />
        </mxCell>
        <mxCell id="_9EYiNdy4eU5hPXUOPR3-38" value="PostID" style="ellipse;whiteSpace=wrap;html=1;fillColor=#d5e8d4;gradientColor=#97d077;strokeColor=#82b366;" parent="1" vertex="1">
          <mxGeometry x="1190" y="801.25" width="100" height="60" as="geometry" />
        </mxCell>
        <mxCell id="_9EYiNdy4eU5hPXUOPR3-39" value="UserID" style="ellipse;whiteSpace=wrap;html=1;fillColor=#d5e8d4;gradientColor=#97d077;strokeColor=#82b366;" parent="1" vertex="1">
          <mxGeometry x="1110" y="870" width="100" height="60" as="geometry" />
        </mxCell>
        <mxCell id="_9EYiNdy4eU5hPXUOPR3-40" value="CreatedAt" style="ellipse;whiteSpace=wrap;html=1;fillColor=#d5e8d4;gradientColor=#97d077;strokeColor=#82b366;" parent="1" vertex="1">
          <mxGeometry x="2070" y="730" width="100" height="60" as="geometry" />
        </mxCell>
        <mxCell id="_9EYiNdy4eU5hPXUOPR3-41" value="Pet1ID" style="ellipse;whiteSpace=wrap;html=1;fillColor=#d5e8d4;gradientColor=#97d077;strokeColor=#82b366;" parent="1" vertex="1">
          <mxGeometry x="1970" y="860" width="100" height="60" as="geometry" />
        </mxCell>
        <mxCell id="_9EYiNdy4eU5hPXUOPR3-42" value="Pet2ID" style="ellipse;whiteSpace=wrap;html=1;fillColor=#d5e8d4;gradientColor=#97d077;strokeColor=#82b366;" parent="1" vertex="1">
          <mxGeometry x="2070" y="820" width="100" height="60" as="geometry" />
        </mxCell>
        <mxCell id="_9EYiNdy4eU5hPXUOPR3-43" value="&lt;u&gt;FriendshipID&lt;/u&gt;" style="ellipse;whiteSpace=wrap;html=1;fillColor=#d5e8d4;gradientColor=#97d077;strokeColor=#82b366;" parent="1" vertex="1">
          <mxGeometry x="1840" y="880" width="110" height="60" as="geometry" />
        </mxCell>
        <mxCell id="_9EYiNdy4eU5hPXUOPR3-44" value="SenderID" style="ellipse;whiteSpace=wrap;html=1;fillColor=#d5e8d4;gradientColor=#97d077;strokeColor=#82b366;" parent="1" vertex="1">
          <mxGeometry x="1430" y="870" width="100" height="60" as="geometry" />
        </mxCell>
        <mxCell id="_9EYiNdy4eU5hPXUOPR3-45" value="&lt;u&gt;MessageID&lt;/u&gt;" style="ellipse;whiteSpace=wrap;html=1;fillColor=#d5e8d4;gradientColor=#97d077;strokeColor=#82b366;" parent="1" vertex="1">
          <mxGeometry x="1360" y="801.25" width="100" height="60" as="geometry" />
        </mxCell>
        <mxCell id="_9EYiNdy4eU5hPXUOPR3-46" value="Content" style="ellipse;whiteSpace=wrap;html=1;fillColor=#d5e8d4;gradientColor=#97d077;strokeColor=#82b366;" parent="1" vertex="1">
          <mxGeometry x="1640" y="810" width="100" height="60" as="geometry" />
        </mxCell>
        <mxCell id="_9EYiNdy4eU5hPXUOPR3-47" value="ReceiverID" style="ellipse;whiteSpace=wrap;html=1;fillColor=#d5e8d4;gradientColor=#97d077;strokeColor=#82b366;" parent="1" vertex="1">
          <mxGeometry x="1550" y="880" width="100" height="60" as="geometry" />
        </mxCell>
        <mxCell id="_9EYiNdy4eU5hPXUOPR3-48" value="SentAt" style="ellipse;whiteSpace=wrap;html=1;fillColor=#d5e8d4;gradientColor=#97d077;strokeColor=#82b366;" parent="1" vertex="1">
          <mxGeometry x="1670" y="740" width="100" height="60" as="geometry" />
        </mxCell>
        <mxCell id="_9EYiNdy4eU5hPXUOPR3-49" value="Name" style="ellipse;whiteSpace=wrap;html=1;fillColor=#d5e8d4;gradientColor=#97d077;strokeColor=#82b366;" parent="1" vertex="1">
          <mxGeometry x="60" y="760" width="100" height="60" as="geometry" />
        </mxCell>
        <mxCell id="_9EYiNdy4eU5hPXUOPR3-50" value="Email" style="ellipse;whiteSpace=wrap;html=1;fillColor=#d5e8d4;gradientColor=#97d077;strokeColor=#82b366;" parent="1" vertex="1">
          <mxGeometry x="350" y="830" width="100" height="60" as="geometry" />
        </mxCell>
        <mxCell id="_9EYiNdy4eU5hPXUOPR3-51" value="ClinicName" style="ellipse;whiteSpace=wrap;html=1;fillColor=#d5e8d4;gradientColor=#97d077;strokeColor=#82b366;" parent="1" vertex="1">
          <mxGeometry x="100" y="860" width="100" height="60" as="geometry" />
        </mxCell>
        <mxCell id="_9EYiNdy4eU5hPXUOPR3-52" value="City" style="ellipse;whiteSpace=wrap;html=1;fillColor=#d5e8d4;gradientColor=#97d077;strokeColor=#82b366;" parent="1" vertex="1">
          <mxGeometry x="230" y="880" width="100" height="60" as="geometry" />
        </mxCell>
        <mxCell id="_9EYiNdy4eU5hPXUOPR3-53" value="&lt;u&gt;VeterianarianID&lt;/u&gt;" style="ellipse;whiteSpace=wrap;html=1;fillColor=#d5e8d4;gradientColor=#97d077;strokeColor=#82b366;" parent="1" vertex="1">
          <mxGeometry x="50" y="650" width="100" height="60" as="geometry" />
        </mxCell>
        <mxCell id="_9EYiNdy4eU5hPXUOPR3-54" value="CreatedAt" style="ellipse;whiteSpace=wrap;html=1;fillColor=#d5e8d4;gradientColor=#97d077;strokeColor=#82b366;" parent="1" vertex="1">
          <mxGeometry x="710" y="890" width="100" height="60" as="geometry" />
        </mxCell>
        <mxCell id="_9EYiNdy4eU5hPXUOPR3-55" value="Content" style="ellipse;whiteSpace=wrap;html=1;fillColor=#d5e8d4;gradientColor=#97d077;strokeColor=#82b366;" parent="1" vertex="1">
          <mxGeometry x="590" y="880" width="100" height="60" as="geometry" />
        </mxCell>
        <mxCell id="_9EYiNdy4eU5hPXUOPR3-56" value="&lt;u&gt;CommentID&lt;/u&gt;" style="ellipse;whiteSpace=wrap;html=1;fillColor=#d5e8d4;gradientColor=#97d077;strokeColor=#82b366;" parent="1" vertex="1">
          <mxGeometry x="540" y="790" width="100" height="60" as="geometry" />
        </mxCell>
        <mxCell id="_9EYiNdy4eU5hPXUOPR3-57" value="UserID" style="ellipse;whiteSpace=wrap;html=1;fillColor=#d5e8d4;gradientColor=#97d077;strokeColor=#82b366;" parent="1" vertex="1">
          <mxGeometry x="790" y="820" width="100" height="60" as="geometry" />
        </mxCell>
        <mxCell id="_9EYiNdy4eU5hPXUOPR3-73" value="PostID" style="ellipse;whiteSpace=wrap;html=1;fillColor=#d5e8d4;gradientColor=#97d077;strokeColor=#82b366;" parent="1" vertex="1">
          <mxGeometry x="850" y="733.75" width="100" height="60" as="geometry" />
        </mxCell>
        <mxCell id="_9EYiNdy4eU5hPXUOPR3-76" value="" style="fontSize=12;html=1;endArrow=ERoneToMany;startArrow=ERoneToMany;rounded=0;strokeColor=default;entryX=0.5;entryY=0;entryDx=0;entryDy=0;" parent="1" target="_9EYiNdy4eU5hPXUOPR3-5" edge="1">
          <mxGeometry width="100" height="100" relative="1" as="geometry">
            <mxPoint x="1130.000000000001" y="235" as="sourcePoint" />
            <mxPoint x="1120" y="500" as="targetPoint" />
          </mxGeometry>
        </mxCell>
        <mxCell id="_9EYiNdy4eU5hPXUOPR3-79" value="" style="fontSize=12;html=1;endArrow=ERoneToMany;startArrow=ERoneToMany;rounded=0;strokeColor=default;entryX=0.5;entryY=0;entryDx=0;entryDy=0;" parent="1" target="_9EYiNdy4eU5hPXUOPR3-7" edge="1">
          <mxGeometry width="100" height="100" relative="1" as="geometry">
            <mxPoint x="1170.000000000001" y="235" as="sourcePoint" />
            <mxPoint x="1190" y="495" as="targetPoint" />
          </mxGeometry>
        </mxCell>
        <mxCell id="_9EYiNdy4eU5hPXUOPR3-80" value="" style="fontSize=12;html=1;endArrow=ERoneToMany;startArrow=ERoneToMany;rounded=0;strokeColor=default;entryX=0.5;entryY=0;entryDx=0;entryDy=0;" parent="1" target="_9EYiNdy4eU5hPXUOPR3-6" edge="1">
          <mxGeometry width="100" height="100" relative="1" as="geometry">
            <mxPoint x="1930" y="235" as="sourcePoint" />
            <mxPoint x="1930" y="505" as="targetPoint" />
          </mxGeometry>
        </mxCell>
        <mxCell id="_9EYiNdy4eU5hPXUOPR3-84" value="" style="fontSize=12;html=1;endArrow=ERoneToMany;startArrow=ERoneToMany;rounded=0;strokeColor=default;entryX=0.5;entryY=0;entryDx=0;entryDy=0;exitX=0;exitY=1;exitDx=0;exitDy=0;" parent="1" source="_9EYiNdy4eU5hPXUOPR3-1" target="_9EYiNdy4eU5hPXUOPR3-8" edge="1">
          <mxGeometry width="100" height="100" relative="1" as="geometry">
            <mxPoint x="640.0000000000009" y="150" as="sourcePoint" />
            <mxPoint x="615" y="635" as="targetPoint" />
          </mxGeometry>
        </mxCell>
        <mxCell id="_9EYiNdy4eU5hPXUOPR3-85" value="Contact" style="rhombus;whiteSpace=wrap;html=1;fillColor=#dae8fc;gradientColor=#7ea6e0;strokeColor=#6c8ebf;" parent="1" vertex="1">
          <mxGeometry x="610" y="430" width="90" height="90" as="geometry" />
        </mxCell>
        <mxCell id="_9EYiNdy4eU5hPXUOPR3-89" value="Leave" style="rhombus;whiteSpace=wrap;html=1;fillColor=#dae8fc;gradientColor=#7ea6e0;strokeColor=#6c8ebf;" parent="1" vertex="1">
          <mxGeometry x="1070" y="440" width="90" height="90" as="geometry" />
        </mxCell>
        <mxCell id="_9EYiNdy4eU5hPXUOPR3-92" value="Send" style="rhombus;whiteSpace=wrap;html=1;fillColor=#dae8fc;gradientColor=#7ea6e0;strokeColor=#6c8ebf;" parent="1" vertex="1">
          <mxGeometry x="1310" y="425" width="90" height="90" as="geometry" />
        </mxCell>
        <mxCell id="_9EYiNdy4eU5hPXUOPR3-93" value="" style="endArrow=ERoneToMany;startArrow=ERone;endFill=0;startFill=0;rounded=0;exitX=0;exitY=0.5;exitDx=0;exitDy=0;entryX=1;entryY=0.5;entryDx=0;entryDy=0;" parent="1" source="_9EYiNdy4eU5hPXUOPR3-1" target="_9EYiNdy4eU5hPXUOPR3-3" edge="1">
          <mxGeometry width="100" height="100" relative="1" as="geometry">
            <mxPoint x="673" y="110" as="sourcePoint" />
            <mxPoint x="330" y="595" as="targetPoint" />
          </mxGeometry>
        </mxCell>
        <mxCell id="_9EYiNdy4eU5hPXUOPR3-95" value="" style="endArrow=ERoneToMany;startArrow=ERone;endFill=0;startFill=0;rounded=0;exitX=0;exitY=0.5;exitDx=0;exitDy=0;entryX=1;entryY=0.5;entryDx=0;entryDy=0;" parent="1" source="_9EYiNdy4eU5hPXUOPR3-1" target="_9EYiNdy4eU5hPXUOPR3-3" edge="1">
          <mxGeometry width="100" height="100" relative="1" as="geometry">
            <mxPoint x="1040" y="200" as="sourcePoint" />
            <mxPoint x="340" y="200" as="targetPoint" />
            <Array as="points">
              <mxPoint x="690" y="200" />
            </Array>
          </mxGeometry>
        </mxCell>
        <mxCell id="_9EYiNdy4eU5hPXUOPR3-96" value="" style="endArrow=ERoneToMany;startArrow=ERone;endFill=0;startFill=0;rounded=0;entryX=0.5;entryY=1;entryDx=0;entryDy=0;exitX=0.25;exitY=0;exitDx=0;exitDy=0;" parent="1" source="_9EYiNdy4eU5hPXUOPR3-8" target="_9EYiNdy4eU5hPXUOPR3-3" edge="1">
          <mxGeometry width="100" height="100" relative="1" as="geometry">
            <mxPoint x="270" y="720" as="sourcePoint" />
            <mxPoint x="70" y="350" as="targetPoint" />
            <Array as="points" />
          </mxGeometry>
        </mxCell>
        <mxCell id="_9EYiNdy4eU5hPXUOPR3-97" value="" style="endArrow=ERoneToMany;startArrow=ERone;endFill=0;startFill=0;rounded=0;exitX=1;exitY=0.5;exitDx=0;exitDy=0;entryX=0;entryY=0.5;entryDx=0;entryDy=0;" parent="1" source="_9EYiNdy4eU5hPXUOPR3-1" target="_9EYiNdy4eU5hPXUOPR3-2" edge="1">
          <mxGeometry width="100" height="100" relative="1" as="geometry">
            <mxPoint x="1170" y="200" as="sourcePoint" />
            <mxPoint x="1860" y="200" as="targetPoint" />
            <Array as="points">
              <mxPoint x="1510" y="200" />
            </Array>
          </mxGeometry>
        </mxCell>
        <mxCell id="_9EYiNdy4eU5hPXUOPR3-98" value="" style="endArrow=ERoneToMany;startArrow=ERone;endFill=0;startFill=0;rounded=0;exitX=0.25;exitY=1;exitDx=0;exitDy=0;entryX=0.5;entryY=0;entryDx=0;entryDy=0;" parent="1" source="_9EYiNdy4eU5hPXUOPR3-1" target="_9EYiNdy4eU5hPXUOPR3-4" edge="1">
          <mxGeometry width="100" height="100" relative="1" as="geometry">
            <mxPoint x="400" y="650" as="sourcePoint" />
            <mxPoint x="1090" y="650" as="targetPoint" />
            <Array as="points" />
          </mxGeometry>
        </mxCell>
        <mxCell id="_9EYiNdy4eU5hPXUOPR3-100" value="Write" style="rhombus;whiteSpace=wrap;html=1;fillColor=#dae8fc;gradientColor=#7ea6e0;strokeColor=#6c8ebf;" parent="1" vertex="1">
          <mxGeometry x="855" y="440" width="90" height="90" as="geometry" />
        </mxCell>
        <mxCell id="_9EYiNdy4eU5hPXUOPR3-103" value="Creates" style="rhombus;whiteSpace=wrap;html=1;fillColor=#dae8fc;gradientColor=#7ea6e0;strokeColor=#6c8ebf;" parent="1" vertex="1">
          <mxGeometry x="210" y="410" width="90" height="90" as="geometry" />
        </mxCell>
        <mxCell id="_9EYiNdy4eU5hPXUOPR3-105" value="Has" style="rhombus;whiteSpace=wrap;html=1;fillColor=#dae8fc;gradientColor=#7ea6e0;strokeColor=#6c8ebf;" parent="1" vertex="1">
          <mxGeometry x="1890" y="430" width="80" height="80" as="geometry" />
        </mxCell>
        <mxCell id="_9EYiNdy4eU5hPXUOPR3-106" value="Create" style="rhombus;whiteSpace=wrap;html=1;fillColor=#dae8fc;gradientColor=#7ea6e0;strokeColor=#6c8ebf;" parent="1" vertex="1">
          <mxGeometry x="650" y="155" width="90" height="90" as="geometry" />
        </mxCell>
        <mxCell id="_9EYiNdy4eU5hPXUOPR3-107" value="Own" style="rhombus;whiteSpace=wrap;html=1;fillColor=#dae8fc;gradientColor=#7ea6e0;strokeColor=#6c8ebf;" parent="1" vertex="1">
          <mxGeometry x="1480" y="155" width="90" height="90" as="geometry" />
        </mxCell>
        <mxCell id="_9EYiNdy4eU5hPXUOPR3-109" value="" style="endArrow=none;html=1;rounded=0;entryX=1;entryY=1;entryDx=0;entryDy=0;exitX=0.25;exitY=0;exitDx=0;exitDy=0;" parent="1" source="_9EYiNdy4eU5hPXUOPR3-1" target="_9EYiNdy4eU5hPXUOPR3-16" edge="1">
          <mxGeometry width="50" height="50" relative="1" as="geometry">
            <mxPoint x="1050" y="160" as="sourcePoint" />
            <mxPoint x="878" y="70" as="targetPoint" />
          </mxGeometry>
        </mxCell>
        <mxCell id="_9EYiNdy4eU5hPXUOPR3-110" value="" style="endArrow=none;html=1;rounded=0;entryX=1;entryY=1;entryDx=0;entryDy=0;exitX=0.355;exitY=0.019;exitDx=0;exitDy=0;exitPerimeter=0;" parent="1" source="_9EYiNdy4eU5hPXUOPR3-1" target="_9EYiNdy4eU5hPXUOPR3-15" edge="1">
          <mxGeometry width="50" height="50" relative="1" as="geometry">
            <mxPoint x="1080" y="160" as="sourcePoint" />
            <mxPoint x="980.46" y="64.9" as="targetPoint" />
          </mxGeometry>
        </mxCell>
        <mxCell id="_9EYiNdy4eU5hPXUOPR3-111" value="" style="endArrow=none;html=1;rounded=0;exitX=0.5;exitY=0;exitDx=0;exitDy=0;entryX=1;entryY=1;entryDx=0;entryDy=0;" parent="1" source="_9EYiNdy4eU5hPXUOPR3-1" target="_9EYiNdy4eU5hPXUOPR3-14" edge="1">
          <mxGeometry width="50" height="50" relative="1" as="geometry">
            <mxPoint x="1205.54" y="164.67" as="sourcePoint" />
            <mxPoint x="1100" y="64" as="targetPoint" />
          </mxGeometry>
        </mxCell>
        <mxCell id="_9EYiNdy4eU5hPXUOPR3-112" value="" style="endArrow=none;html=1;rounded=0;entryX=0;entryY=1;entryDx=0;entryDy=0;exitX=0.75;exitY=0;exitDx=0;exitDy=0;" parent="1" source="_9EYiNdy4eU5hPXUOPR3-1" target="_9EYiNdy4eU5hPXUOPR3-18" edge="1">
          <mxGeometry width="50" height="50" relative="1" as="geometry">
            <mxPoint x="1155" y="155" as="sourcePoint" />
            <mxPoint x="1150" y="53.57000000000001" as="targetPoint" />
          </mxGeometry>
        </mxCell>
        <mxCell id="_9EYiNdy4eU5hPXUOPR3-114" value="" style="endArrow=none;html=1;rounded=0;entryX=0;entryY=0.5;entryDx=0;entryDy=0;exitX=1;exitY=0;exitDx=0;exitDy=0;" parent="1" source="_9EYiNdy4eU5hPXUOPR3-1" target="_9EYiNdy4eU5hPXUOPR3-13" edge="1">
          <mxGeometry width="50" height="50" relative="1" as="geometry">
            <mxPoint x="1185" y="170" as="sourcePoint" />
            <mxPoint x="1180" y="68.57000000000001" as="targetPoint" />
          </mxGeometry>
        </mxCell>
        <mxCell id="_9EYiNdy4eU5hPXUOPR3-115" value="" style="endArrow=none;html=1;rounded=0;entryX=0;entryY=0.5;entryDx=0;entryDy=0;exitX=1;exitY=0.25;exitDx=0;exitDy=0;" parent="1" source="_9EYiNdy4eU5hPXUOPR3-1" target="_9EYiNdy4eU5hPXUOPR3-17" edge="1">
          <mxGeometry width="50" height="50" relative="1" as="geometry">
            <mxPoint x="1245" y="200.71" as="sourcePoint" />
            <mxPoint x="1240" y="99.28" as="targetPoint" />
          </mxGeometry>
        </mxCell>
        <mxCell id="_9EYiNdy4eU5hPXUOPR3-116" value="" style="endArrow=none;html=1;rounded=0;exitX=0;exitY=0.5;exitDx=0;exitDy=0;entryX=1;entryY=0.5;entryDx=0;entryDy=0;" parent="1" source="_9EYiNdy4eU5hPXUOPR3-3" target="_9EYiNdy4eU5hPXUOPR3-34" edge="1">
          <mxGeometry width="50" height="50" relative="1" as="geometry">
            <mxPoint x="222.10000000000002" y="280" as="sourcePoint" />
            <mxPoint x="50.10000000000002" y="247" as="targetPoint" />
          </mxGeometry>
        </mxCell>
        <mxCell id="_9EYiNdy4eU5hPXUOPR3-117" value="" style="endArrow=none;html=1;rounded=0;exitX=0;exitY=0;exitDx=0;exitDy=0;entryX=1;entryY=0.5;entryDx=0;entryDy=0;" parent="1" source="_9EYiNdy4eU5hPXUOPR3-3" target="_9EYiNdy4eU5hPXUOPR3-31" edge="1">
          <mxGeometry width="50" height="50" relative="1" as="geometry">
            <mxPoint x="210.00000000000003" y="313" as="sourcePoint" />
            <mxPoint x="38.00000000000002" y="280" as="targetPoint" />
          </mxGeometry>
        </mxCell>
        <mxCell id="_9EYiNdy4eU5hPXUOPR3-118" value="" style="endArrow=none;html=1;rounded=0;exitX=0.25;exitY=0;exitDx=0;exitDy=0;entryX=1;entryY=1;entryDx=0;entryDy=0;" parent="1" source="_9EYiNdy4eU5hPXUOPR3-3" target="_9EYiNdy4eU5hPXUOPR3-35" edge="1">
          <mxGeometry width="50" height="50" relative="1" as="geometry">
            <mxPoint x="196.00000000000003" y="343" as="sourcePoint" />
            <mxPoint x="24.00000000000002" y="310" as="targetPoint" />
          </mxGeometry>
        </mxCell>
        <mxCell id="_9EYiNdy4eU5hPXUOPR3-119" value="" style="endArrow=none;html=1;rounded=0;exitX=0.5;exitY=0;exitDx=0;exitDy=0;entryX=0.5;entryY=1;entryDx=0;entryDy=0;" parent="1" source="_9EYiNdy4eU5hPXUOPR3-3" target="_9EYiNdy4eU5hPXUOPR3-32" edge="1">
          <mxGeometry width="50" height="50" relative="1" as="geometry">
            <mxPoint x="186.00000000000003" y="373" as="sourcePoint" />
            <mxPoint x="14.000000000000021" y="340" as="targetPoint" />
          </mxGeometry>
        </mxCell>
        <mxCell id="_9EYiNdy4eU5hPXUOPR3-120" value="" style="endArrow=none;html=1;rounded=0;exitX=0.75;exitY=0;exitDx=0;exitDy=0;entryX=0.5;entryY=1;entryDx=0;entryDy=0;" parent="1" source="_9EYiNdy4eU5hPXUOPR3-3" target="_9EYiNdy4eU5hPXUOPR3-33" edge="1">
          <mxGeometry width="50" height="50" relative="1" as="geometry">
            <mxPoint x="182.00000000000003" y="393" as="sourcePoint" />
            <mxPoint x="10.000000000000021" y="360" as="targetPoint" />
          </mxGeometry>
        </mxCell>
        <mxCell id="_9EYiNdy4eU5hPXUOPR3-121" value="" style="endArrow=none;html=1;rounded=0;entryX=1;entryY=0.5;entryDx=0;entryDy=0;exitX=0;exitY=0.25;exitDx=0;exitDy=0;" parent="1" source="_9EYiNdy4eU5hPXUOPR3-2" target="_9EYiNdy4eU5hPXUOPR3-20" edge="1">
          <mxGeometry width="50" height="50" relative="1" as="geometry">
            <mxPoint x="1470" y="318" as="sourcePoint" />
            <mxPoint x="1580" y="280" as="targetPoint" />
          </mxGeometry>
        </mxCell>
        <mxCell id="_9EYiNdy4eU5hPXUOPR3-122" value="" style="endArrow=none;html=1;rounded=0;entryX=1;entryY=1;entryDx=0;entryDy=0;exitX=0;exitY=0;exitDx=0;exitDy=0;" parent="1" source="_9EYiNdy4eU5hPXUOPR3-2" target="_9EYiNdy4eU5hPXUOPR3-21" edge="1">
          <mxGeometry width="50" height="50" relative="1" as="geometry">
            <mxPoint x="1495" y="348" as="sourcePoint" />
            <mxPoint x="1605" y="310" as="targetPoint" />
          </mxGeometry>
        </mxCell>
        <mxCell id="_9EYiNdy4eU5hPXUOPR3-123" value="" style="endArrow=none;html=1;rounded=0;entryX=0.738;entryY=0.956;entryDx=0;entryDy=0;exitX=0.25;exitY=0;exitDx=0;exitDy=0;entryPerimeter=0;" parent="1" source="_9EYiNdy4eU5hPXUOPR3-2" target="_9EYiNdy4eU5hPXUOPR3-22" edge="1">
          <mxGeometry width="50" height="50" relative="1" as="geometry">
            <mxPoint x="1520" y="378" as="sourcePoint" />
            <mxPoint x="1630" y="340" as="targetPoint" />
          </mxGeometry>
        </mxCell>
        <mxCell id="_9EYiNdy4eU5hPXUOPR3-124" value="" style="endArrow=none;html=1;rounded=0;entryX=0.5;entryY=1;entryDx=0;entryDy=0;exitX=0.5;exitY=0;exitDx=0;exitDy=0;" parent="1" source="_9EYiNdy4eU5hPXUOPR3-2" target="_9EYiNdy4eU5hPXUOPR3-23" edge="1">
          <mxGeometry width="50" height="50" relative="1" as="geometry">
            <mxPoint x="1540" y="410" as="sourcePoint" />
            <mxPoint x="1650" y="372" as="targetPoint" />
          </mxGeometry>
        </mxCell>
        <mxCell id="_9EYiNdy4eU5hPXUOPR3-125" value="" style="endArrow=none;html=1;rounded=0;entryX=0.5;entryY=1;entryDx=0;entryDy=0;exitX=0.75;exitY=0;exitDx=0;exitDy=0;" parent="1" source="_9EYiNdy4eU5hPXUOPR3-2" target="_9EYiNdy4eU5hPXUOPR3-26" edge="1">
          <mxGeometry width="50" height="50" relative="1" as="geometry">
            <mxPoint x="1550" y="440" as="sourcePoint" />
            <mxPoint x="1660" y="402" as="targetPoint" />
          </mxGeometry>
        </mxCell>
        <mxCell id="_9EYiNdy4eU5hPXUOPR3-126" value="" style="endArrow=none;html=1;rounded=0;entryX=0;entryY=1;entryDx=0;entryDy=0;" parent="1" target="_9EYiNdy4eU5hPXUOPR3-27" edge="1">
          <mxGeometry width="50" height="50" relative="1" as="geometry">
            <mxPoint x="2000" y="170" as="sourcePoint" />
            <mxPoint x="1680" y="440" as="targetPoint" />
          </mxGeometry>
        </mxCell>
        <mxCell id="_9EYiNdy4eU5hPXUOPR3-127" value="" style="endArrow=none;html=1;rounded=0;exitX=1;exitY=0.5;exitDx=0;exitDy=0;entryX=0;entryY=0.5;entryDx=0;entryDy=0;" parent="1" source="_9EYiNdy4eU5hPXUOPR3-2" target="_9EYiNdy4eU5hPXUOPR3-28" edge="1">
          <mxGeometry width="50" height="50" relative="1" as="geometry">
            <mxPoint x="1595" y="504" as="sourcePoint" />
            <mxPoint x="1705" y="466" as="targetPoint" />
          </mxGeometry>
        </mxCell>
        <mxCell id="_9EYiNdy4eU5hPXUOPR3-128" value="" style="endArrow=none;html=1;rounded=0;entryX=0;entryY=0.5;entryDx=0;entryDy=0;exitX=1;exitY=1;exitDx=0;exitDy=0;" parent="1" source="_9EYiNdy4eU5hPXUOPR3-2" target="_9EYiNdy4eU5hPXUOPR3-29" edge="1">
          <mxGeometry width="50" height="50" relative="1" as="geometry">
            <mxPoint x="1615" y="538" as="sourcePoint" />
            <mxPoint x="1725" y="500" as="targetPoint" />
          </mxGeometry>
        </mxCell>
        <mxCell id="_9EYiNdy4eU5hPXUOPR3-130" value="" style="endArrow=none;html=1;rounded=0;entryX=0.5;entryY=0;entryDx=0;entryDy=0;exitX=0.25;exitY=1;exitDx=0;exitDy=0;" parent="1" source="_9EYiNdy4eU5hPXUOPR3-6" target="_9EYiNdy4eU5hPXUOPR3-43" edge="1">
          <mxGeometry width="50" height="50" relative="1" as="geometry">
            <mxPoint x="2030" y="380" as="sourcePoint" />
            <mxPoint x="2110" y="395" as="targetPoint" />
          </mxGeometry>
        </mxCell>
        <mxCell id="_9EYiNdy4eU5hPXUOPR3-131" value="" style="endArrow=none;html=1;rounded=0;entryX=0.5;entryY=0;entryDx=0;entryDy=0;exitX=0.5;exitY=1;exitDx=0;exitDy=0;" parent="1" source="_9EYiNdy4eU5hPXUOPR3-6" target="_9EYiNdy4eU5hPXUOPR3-41" edge="1">
          <mxGeometry width="50" height="50" relative="1" as="geometry">
            <mxPoint x="2030" y="430" as="sourcePoint" />
            <mxPoint x="2110" y="445" as="targetPoint" />
          </mxGeometry>
        </mxCell>
        <mxCell id="_9EYiNdy4eU5hPXUOPR3-132" value="" style="endArrow=none;html=1;rounded=0;entryX=0;entryY=0.5;entryDx=0;entryDy=0;exitX=1;exitY=0.5;exitDx=0;exitDy=0;" parent="1" source="_9EYiNdy4eU5hPXUOPR3-6" target="_9EYiNdy4eU5hPXUOPR3-40" edge="1">
          <mxGeometry width="50" height="50" relative="1" as="geometry">
            <mxPoint x="2030" y="485" as="sourcePoint" />
            <mxPoint x="2110" y="500" as="targetPoint" />
          </mxGeometry>
        </mxCell>
        <mxCell id="_9EYiNdy4eU5hPXUOPR3-134" value="" style="endArrow=none;html=1;rounded=0;entryX=0;entryY=0.5;entryDx=0;entryDy=0;exitX=1;exitY=1;exitDx=0;exitDy=0;" parent="1" source="_9EYiNdy4eU5hPXUOPR3-6" target="_9EYiNdy4eU5hPXUOPR3-42" edge="1">
          <mxGeometry width="50" height="50" relative="1" as="geometry">
            <mxPoint x="2020" y="471.25" as="sourcePoint" />
            <mxPoint x="2100" y="486.25" as="targetPoint" />
          </mxGeometry>
        </mxCell>
        <mxCell id="_9EYiNdy4eU5hPXUOPR3-135" value="" style="endArrow=none;html=1;rounded=0;entryX=0;entryY=0.5;entryDx=0;entryDy=0;exitX=1;exitY=0.5;exitDx=0;exitDy=0;" parent="1" source="_9EYiNdy4eU5hPXUOPR3-7" target="_9EYiNdy4eU5hPXUOPR3-48" edge="1">
          <mxGeometry width="50" height="50" relative="1" as="geometry">
            <mxPoint x="1760" y="930" as="sourcePoint" />
            <mxPoint x="1760" y="1020" as="targetPoint" />
          </mxGeometry>
        </mxCell>
        <mxCell id="_9EYiNdy4eU5hPXUOPR3-136" value="" style="endArrow=none;html=1;rounded=0;exitX=1;exitY=1;exitDx=0;exitDy=0;" parent="1" source="_9EYiNdy4eU5hPXUOPR3-7" target="_9EYiNdy4eU5hPXUOPR3-46" edge="1">
          <mxGeometry width="50" height="50" relative="1" as="geometry">
            <mxPoint x="1710" y="930" as="sourcePoint" />
            <mxPoint x="1710" y="1020" as="targetPoint" />
          </mxGeometry>
        </mxCell>
        <mxCell id="_9EYiNdy4eU5hPXUOPR3-137" value="" style="endArrow=none;html=1;rounded=0;exitX=0.577;exitY=0.96;exitDx=0;exitDy=0;exitPerimeter=0;" parent="1" source="_9EYiNdy4eU5hPXUOPR3-7" edge="1">
          <mxGeometry width="50" height="50" relative="1" as="geometry">
            <mxPoint x="1670" y="940" as="sourcePoint" />
            <mxPoint x="1600" y="880" as="targetPoint" />
          </mxGeometry>
        </mxCell>
        <mxCell id="_9EYiNdy4eU5hPXUOPR3-138" value="" style="endArrow=none;html=1;rounded=0;exitX=0.25;exitY=1;exitDx=0;exitDy=0;" parent="1" source="_9EYiNdy4eU5hPXUOPR3-7" target="_9EYiNdy4eU5hPXUOPR3-44" edge="1">
          <mxGeometry width="50" height="50" relative="1" as="geometry">
            <mxPoint x="1510" y="810" as="sourcePoint" />
            <mxPoint x="1638.46" y="1040" as="targetPoint" />
          </mxGeometry>
        </mxCell>
        <mxCell id="_9EYiNdy4eU5hPXUOPR3-139" value="" style="endArrow=none;html=1;rounded=0;exitX=0;exitY=0.5;exitDx=0;exitDy=0;entryX=0.5;entryY=0;entryDx=0;entryDy=0;" parent="1" source="_9EYiNdy4eU5hPXUOPR3-7" target="_9EYiNdy4eU5hPXUOPR3-45" edge="1">
          <mxGeometry width="50" height="50" relative="1" as="geometry">
            <mxPoint x="1599.23" y="950" as="sourcePoint" />
            <mxPoint x="1599" y="1040" as="targetPoint" />
          </mxGeometry>
        </mxCell>
        <mxCell id="_9EYiNdy4eU5hPXUOPR3-140" value="" style="endArrow=none;html=1;rounded=0;entryX=0.5;entryY=0;entryDx=0;entryDy=0;exitX=1;exitY=0.75;exitDx=0;exitDy=0;" parent="1" source="_9EYiNdy4eU5hPXUOPR3-5" target="_9EYiNdy4eU5hPXUOPR3-38" edge="1">
          <mxGeometry width="50" height="50" relative="1" as="geometry">
            <mxPoint x="1300" y="1020" as="sourcePoint" />
            <mxPoint x="1300" y="1110" as="targetPoint" />
          </mxGeometry>
        </mxCell>
        <mxCell id="_9EYiNdy4eU5hPXUOPR3-141" value="" style="endArrow=none;html=1;rounded=0;entryX=0.5;entryY=0;entryDx=0;entryDy=0;exitX=0.75;exitY=1;exitDx=0;exitDy=0;" parent="1" source="_9EYiNdy4eU5hPXUOPR3-5" target="_9EYiNdy4eU5hPXUOPR3-39" edge="1">
          <mxGeometry width="50" height="50" relative="1" as="geometry">
            <mxPoint x="1250" y="1020" as="sourcePoint" />
            <mxPoint x="1250" y="1110" as="targetPoint" />
          </mxGeometry>
        </mxCell>
        <mxCell id="_9EYiNdy4eU5hPXUOPR3-142" value="" style="endArrow=none;html=1;rounded=0;entryX=0.5;entryY=0;entryDx=0;entryDy=0;exitX=0.147;exitY=1.001;exitDx=0;exitDy=0;exitPerimeter=0;" parent="1" source="_9EYiNdy4eU5hPXUOPR3-5" target="_9EYiNdy4eU5hPXUOPR3-37" edge="1">
          <mxGeometry width="50" height="50" relative="1" as="geometry">
            <mxPoint x="1188.46" y="1020" as="sourcePoint" />
            <mxPoint x="1188.46" y="1110" as="targetPoint" />
          </mxGeometry>
        </mxCell>
        <mxCell id="_9EYiNdy4eU5hPXUOPR3-143" value="" style="endArrow=none;html=1;rounded=0;exitX=1;exitY=0.5;exitDx=0;exitDy=0;" parent="1" source="_9EYiNdy4eU5hPXUOPR3-4" target="_9EYiNdy4eU5hPXUOPR3-73" edge="1">
          <mxGeometry width="50" height="50" relative="1" as="geometry">
            <mxPoint x="918" y="1050" as="sourcePoint" />
            <mxPoint x="918.46" y="1140" as="targetPoint" />
          </mxGeometry>
        </mxCell>
        <mxCell id="_9EYiNdy4eU5hPXUOPR3-144" value="" style="endArrow=none;html=1;rounded=0;entryX=0.5;entryY=0;entryDx=0;entryDy=0;exitX=1;exitY=1;exitDx=0;exitDy=0;" parent="1" source="_9EYiNdy4eU5hPXUOPR3-4" target="_9EYiNdy4eU5hPXUOPR3-57" edge="1">
          <mxGeometry width="50" height="50" relative="1" as="geometry">
            <mxPoint x="859.23" y="1080" as="sourcePoint" />
            <mxPoint x="859.23" y="1170" as="targetPoint" />
          </mxGeometry>
        </mxCell>
        <mxCell id="_9EYiNdy4eU5hPXUOPR3-145" value="" style="endArrow=none;html=1;rounded=0;exitX=0.75;exitY=1;exitDx=0;exitDy=0;entryX=0.5;entryY=0;entryDx=0;entryDy=0;" parent="1" source="_9EYiNdy4eU5hPXUOPR3-4" target="_9EYiNdy4eU5hPXUOPR3-54" edge="1">
          <mxGeometry width="50" height="50" relative="1" as="geometry">
            <mxPoint x="790.23" y="1100" as="sourcePoint" />
            <mxPoint x="790" y="1190" as="targetPoint" />
          </mxGeometry>
        </mxCell>
        <mxCell id="_9EYiNdy4eU5hPXUOPR3-146" value="" style="endArrow=none;html=1;rounded=0;exitX=0.25;exitY=1;exitDx=0;exitDy=0;entryX=0.5;entryY=0;entryDx=0;entryDy=0;" parent="1" source="_9EYiNdy4eU5hPXUOPR3-4" target="_9EYiNdy4eU5hPXUOPR3-55" edge="1">
          <mxGeometry width="50" height="50" relative="1" as="geometry">
            <mxPoint x="720.23" y="1130" as="sourcePoint" />
            <mxPoint x="720" y="1220" as="targetPoint" />
          </mxGeometry>
        </mxCell>
        <mxCell id="_9EYiNdy4eU5hPXUOPR3-147" value="" style="endArrow=none;html=1;rounded=0;exitX=0;exitY=0;exitDx=0;exitDy=0;entryX=1;entryY=1;entryDx=0;entryDy=0;" parent="1" source="_9EYiNdy4eU5hPXUOPR3-8" target="_9EYiNdy4eU5hPXUOPR3-53" edge="1">
          <mxGeometry width="50" height="50" relative="1" as="geometry">
            <mxPoint x="70.23000000000002" y="1140" as="sourcePoint" />
            <mxPoint x="70" y="1230" as="targetPoint" />
          </mxGeometry>
        </mxCell>
        <mxCell id="_9EYiNdy4eU5hPXUOPR3-148" value="" style="endArrow=none;html=1;rounded=0;exitX=0;exitY=0.5;exitDx=0;exitDy=0;entryX=0.5;entryY=0;entryDx=0;entryDy=0;" parent="1" source="_9EYiNdy4eU5hPXUOPR3-4" target="_9EYiNdy4eU5hPXUOPR3-56" edge="1">
          <mxGeometry width="50" height="50" relative="1" as="geometry">
            <mxPoint x="619.23" y="1130" as="sourcePoint" />
            <mxPoint x="619" y="1220" as="targetPoint" />
          </mxGeometry>
        </mxCell>
        <mxCell id="_9EYiNdy4eU5hPXUOPR3-150" value="" style="endArrow=none;html=1;rounded=0;exitX=0.196;exitY=0.99;exitDx=0;exitDy=0;exitPerimeter=0;" parent="1" source="_9EYiNdy4eU5hPXUOPR3-8" target="_9EYiNdy4eU5hPXUOPR3-51" edge="1">
          <mxGeometry width="50" height="50" relative="1" as="geometry">
            <mxPoint x="70.23000000000002" y="980" as="sourcePoint" />
            <mxPoint x="70" y="1070" as="targetPoint" />
          </mxGeometry>
        </mxCell>
        <mxCell id="_9EYiNdy4eU5hPXUOPR3-153" value="" style="endArrow=none;html=1;rounded=0;exitX=0;exitY=0.5;exitDx=0;exitDy=0;" parent="1" source="_9EYiNdy4eU5hPXUOPR3-8" target="_9EYiNdy4eU5hPXUOPR3-49" edge="1">
          <mxGeometry width="50" height="50" relative="1" as="geometry">
            <mxPoint x="120.23000000000002" y="1110" as="sourcePoint" />
            <mxPoint x="120" y="1200" as="targetPoint" />
          </mxGeometry>
        </mxCell>
        <mxCell id="_9EYiNdy4eU5hPXUOPR3-154" value="" style="endArrow=none;html=1;rounded=0;exitX=0.63;exitY=0.98;exitDx=0;exitDy=0;exitPerimeter=0;entryX=0.5;entryY=0;entryDx=0;entryDy=0;" parent="1" source="_9EYiNdy4eU5hPXUOPR3-8" target="_9EYiNdy4eU5hPXUOPR3-52" edge="1">
          <mxGeometry width="50" height="50" relative="1" as="geometry">
            <mxPoint x="160.23000000000002" y="1090" as="sourcePoint" />
            <mxPoint x="160" y="1180" as="targetPoint" />
          </mxGeometry>
        </mxCell>
        <mxCell id="_9EYiNdy4eU5hPXUOPR3-155" value="" style="endArrow=none;html=1;rounded=0;exitX=1;exitY=1;exitDx=0;exitDy=0;entryX=0.5;entryY=0;entryDx=0;entryDy=0;" parent="1" source="_9EYiNdy4eU5hPXUOPR3-8" target="_9EYiNdy4eU5hPXUOPR3-50" edge="1">
          <mxGeometry width="50" height="50" relative="1" as="geometry">
            <mxPoint x="209.12" y="1080" as="sourcePoint" />
            <mxPoint x="208.89" y="1170" as="targetPoint" />
          </mxGeometry>
        </mxCell>
        <mxCell id="o6pJe3aBnbfjn7YWIz4t-1" value="ADMIN ACTION" style="rounded=0;whiteSpace=wrap;html=1;fillColor=#f8cecc;strokeColor=#b85450;" parent="1" vertex="1">
          <mxGeometry x="1030" y="-390" width="140" height="70" as="geometry" />
        </mxCell>
        <mxCell id="o6pJe3aBnbfjn7YWIz4t-3" value="LikedAt" style="ellipse;whiteSpace=wrap;html=1;fillColor=#d5e8d4;strokeColor=#82b366;gradientColor=#97d077;" parent="1" vertex="1">
          <mxGeometry x="1000" y="900" width="100" height="60" as="geometry" />
        </mxCell>
        <mxCell id="o6pJe3aBnbfjn7YWIz4t-4" value="" style="endArrow=none;html=1;rounded=0;entryX=0.454;entryY=1.006;entryDx=0;entryDy=0;entryPerimeter=0;exitX=0.5;exitY=0;exitDx=0;exitDy=0;" parent="1" source="o6pJe3aBnbfjn7YWIz4t-3" target="_9EYiNdy4eU5hPXUOPR3-5" edge="1">
          <mxGeometry width="50" height="50" relative="1" as="geometry">
            <mxPoint x="1060" y="860" as="sourcePoint" />
            <mxPoint x="1110" y="810" as="targetPoint" />
          </mxGeometry>
        </mxCell>
        <mxCell id="o6pJe3aBnbfjn7YWIz4t-5" value="" style="endArrow=ERoneToMany;startArrow=ERone;endFill=0;startFill=0;rounded=0;entryX=1;entryY=0;entryDx=0;entryDy=0;exitX=0;exitY=1;exitDx=0;exitDy=0;" parent="1" source="o6pJe3aBnbfjn7YWIz4t-1" target="_9EYiNdy4eU5hPXUOPR3-3" edge="1">
          <mxGeometry width="100" height="100" relative="1" as="geometry">
            <mxPoint x="1035" y="-130" as="sourcePoint" />
            <mxPoint x="335" y="-130" as="targetPoint" />
            <Array as="points" />
          </mxGeometry>
        </mxCell>
        <mxCell id="o6pJe3aBnbfjn7YWIz4t-6" value="" style="endArrow=ERoneToMany;startArrow=ERone;endFill=0;startFill=0;rounded=0;entryX=0.663;entryY=0.003;entryDx=0;entryDy=0;exitX=0.75;exitY=1;exitDx=0;exitDy=0;entryPerimeter=0;" parent="1" edge="1">
          <mxGeometry width="100" height="100" relative="1" as="geometry">
            <mxPoint x="1122.18" y="-320.21" as="sourcePoint" />
            <mxPoint x="1119.9999999999998" y="164.9999999999998" as="targetPoint" />
            <Array as="points" />
          </mxGeometry>
        </mxCell>
        <mxCell id="o6pJe3aBnbfjn7YWIz4t-7" value="Moderates" style="rhombus;whiteSpace=wrap;html=1;fillColor=#dae8fc;strokeColor=#6c8ebf;gradientColor=#7ea6e0;" parent="1" vertex="1">
          <mxGeometry x="660" y="-130" width="90" height="90" as="geometry" />
        </mxCell>
        <mxCell id="o6pJe3aBnbfjn7YWIz4t-8" value="Manages" style="rhombus;whiteSpace=wrap;html=1;fillColor=#dae8fc;gradientColor=#7ea6e0;strokeColor=#6c8ebf;" parent="1" vertex="1">
          <mxGeometry x="1075" y="-170" width="90" height="90" as="geometry" />
        </mxCell>
        <mxCell id="o6pJe3aBnbfjn7YWIz4t-9" value="&lt;u&gt;ActionID&lt;/u&gt;" style="ellipse;whiteSpace=wrap;html=1;gradientColor=#97d077;fillColor=#d5e8d4;strokeColor=#82b366;" parent="1" vertex="1">
          <mxGeometry x="845" y="-400" width="100" height="60" as="geometry" />
        </mxCell>
        <mxCell id="o6pJe3aBnbfjn7YWIz4t-10" value="AdminID" style="ellipse;whiteSpace=wrap;html=1;fillColor=#d5e8d4;gradientColor=#97d077;strokeColor=#82b366;" parent="1" vertex="1">
          <mxGeometry x="870" y="-470" width="100" height="60" as="geometry" />
        </mxCell>
        <mxCell id="o6pJe3aBnbfjn7YWIz4t-11" value="ActionType" style="ellipse;whiteSpace=wrap;html=1;fillColor=#d5e8d4;gradientColor=#97d077;strokeColor=#82b366;" parent="1" vertex="1">
          <mxGeometry x="960" y="-520" width="100" height="60" as="geometry" />
        </mxCell>
        <mxCell id="o6pJe3aBnbfjn7YWIz4t-12" value="TargetUserID" style="ellipse;whiteSpace=wrap;html=1;fillColor=#d5e8d4;gradientColor=#97d077;strokeColor=#82b366;" parent="1" vertex="1">
          <mxGeometry x="1080" y="-530" width="100" height="60" as="geometry" />
        </mxCell>
        <mxCell id="o6pJe3aBnbfjn7YWIz4t-13" value="TargetPostID" style="ellipse;whiteSpace=wrap;html=1;fillColor=#d5e8d4;gradientColor=#97d077;strokeColor=#82b366;" parent="1" vertex="1">
          <mxGeometry x="1200" y="-520" width="100" height="60" as="geometry" />
        </mxCell>
        <mxCell id="o6pJe3aBnbfjn7YWIz4t-14" value="Description" style="ellipse;whiteSpace=wrap;html=1;fillColor=#d5e8d4;gradientColor=#97d077;strokeColor=#82b366;" parent="1" vertex="1">
          <mxGeometry x="1250" y="-380" width="100" height="60" as="geometry" />
        </mxCell>
        <mxCell id="o6pJe3aBnbfjn7YWIz4t-15" value="ActionDate" style="ellipse;whiteSpace=wrap;html=1;fillColor=#d5e8d4;gradientColor=#97d077;strokeColor=#82b366;" parent="1" vertex="1">
          <mxGeometry x="1240" y="-450" width="100" height="60" as="geometry" />
        </mxCell>
        <mxCell id="o6pJe3aBnbfjn7YWIz4t-17" value="" style="endArrow=none;html=1;rounded=0;entryX=1;entryY=0.5;entryDx=0;entryDy=0;exitX=0;exitY=0.5;exitDx=0;exitDy=0;" parent="1" source="o6pJe3aBnbfjn7YWIz4t-1" target="o6pJe3aBnbfjn7YWIz4t-9" edge="1">
          <mxGeometry width="50" height="50" relative="1" as="geometry">
            <mxPoint x="920" y="-290" as="sourcePoint" />
            <mxPoint x="970" y="-340" as="targetPoint" />
          </mxGeometry>
        </mxCell>
        <mxCell id="o6pJe3aBnbfjn7YWIz4t-18" value="" style="endArrow=none;html=1;rounded=0;entryX=1;entryY=1;entryDx=0;entryDy=0;exitX=0;exitY=0.25;exitDx=0;exitDy=0;" parent="1" source="o6pJe3aBnbfjn7YWIz4t-1" target="o6pJe3aBnbfjn7YWIz4t-10" edge="1">
          <mxGeometry width="50" height="50" relative="1" as="geometry">
            <mxPoint x="970" y="-380" as="sourcePoint" />
            <mxPoint x="1020" y="-430" as="targetPoint" />
          </mxGeometry>
        </mxCell>
        <mxCell id="o6pJe3aBnbfjn7YWIz4t-19" value="" style="endArrow=none;html=1;rounded=0;entryX=0.5;entryY=1;entryDx=0;entryDy=0;" parent="1" target="o6pJe3aBnbfjn7YWIz4t-11" edge="1">
          <mxGeometry width="50" height="50" relative="1" as="geometry">
            <mxPoint x="1046" y="-390" as="sourcePoint" />
            <mxPoint x="1060" y="-450" as="targetPoint" />
          </mxGeometry>
        </mxCell>
        <mxCell id="o6pJe3aBnbfjn7YWIz4t-20" value="" style="endArrow=none;html=1;rounded=0;entryX=0.5;entryY=1;entryDx=0;entryDy=0;exitX=0.5;exitY=0;exitDx=0;exitDy=0;" parent="1" source="o6pJe3aBnbfjn7YWIz4t-1" target="o6pJe3aBnbfjn7YWIz4t-12" edge="1">
          <mxGeometry width="50" height="50" relative="1" as="geometry">
            <mxPoint x="1100" y="-420" as="sourcePoint" />
            <mxPoint x="1110" y="-450" as="targetPoint" />
          </mxGeometry>
        </mxCell>
        <mxCell id="o6pJe3aBnbfjn7YWIz4t-21" value="" style="endArrow=none;html=1;rounded=0;entryX=0;entryY=1;entryDx=0;entryDy=0;exitX=0.75;exitY=0;exitDx=0;exitDy=0;" parent="1" source="o6pJe3aBnbfjn7YWIz4t-1" target="o6pJe3aBnbfjn7YWIz4t-13" edge="1">
          <mxGeometry width="50" height="50" relative="1" as="geometry">
            <mxPoint x="1160" y="-400" as="sourcePoint" />
            <mxPoint x="1210" y="-450" as="targetPoint" />
          </mxGeometry>
        </mxCell>
        <mxCell id="o6pJe3aBnbfjn7YWIz4t-22" value="" style="endArrow=none;html=1;rounded=0;entryX=0;entryY=0.5;entryDx=0;entryDy=0;exitX=1;exitY=0.25;exitDx=0;exitDy=0;" parent="1" source="o6pJe3aBnbfjn7YWIz4t-1" target="o6pJe3aBnbfjn7YWIz4t-15" edge="1">
          <mxGeometry width="50" height="50" relative="1" as="geometry">
            <mxPoint x="1180" y="-360" as="sourcePoint" />
            <mxPoint x="1230" y="-410" as="targetPoint" />
          </mxGeometry>
        </mxCell>
        <mxCell id="o6pJe3aBnbfjn7YWIz4t-23" value="" style="endArrow=none;html=1;rounded=0;entryX=0;entryY=0.5;entryDx=0;entryDy=0;exitX=1;exitY=0.75;exitDx=0;exitDy=0;" parent="1" source="o6pJe3aBnbfjn7YWIz4t-1" target="o6pJe3aBnbfjn7YWIz4t-14" edge="1">
          <mxGeometry width="50" height="50" relative="1" as="geometry">
            <mxPoint x="1170" y="-300" as="sourcePoint" />
            <mxPoint x="1220" y="-350" as="targetPoint" />
          </mxGeometry>
        </mxCell>
        <mxCell id="o6pJe3aBnbfjn7YWIz4t-25" value="One" style="text;html=1;align=center;verticalAlign=middle;whiteSpace=wrap;rounded=0;" parent="1" vertex="1">
          <mxGeometry x="1115" y="-310" width="50" height="20" as="geometry" />
        </mxCell>
        <mxCell id="o6pJe3aBnbfjn7YWIz4t-26" value="Many" style="text;html=1;align=center;verticalAlign=middle;whiteSpace=wrap;rounded=0;" parent="1" vertex="1">
          <mxGeometry x="1115" y="130" width="40" height="15" as="geometry" />
        </mxCell>
        <mxCell id="o6pJe3aBnbfjn7YWIz4t-27" value="One" style="text;html=1;align=center;verticalAlign=middle;whiteSpace=wrap;rounded=0;" parent="1" vertex="1">
          <mxGeometry x="1010" y="-300" width="50" height="20" as="geometry" />
        </mxCell>
        <mxCell id="o6pJe3aBnbfjn7YWIz4t-28" value="Many" style="text;html=1;align=center;verticalAlign=middle;whiteSpace=wrap;rounded=0;" parent="1" vertex="1">
          <mxGeometry x="360" y="150" width="40" height="15" as="geometry" />
        </mxCell>
        <mxCell id="o6pJe3aBnbfjn7YWIz4t-29" value="Many" style="text;html=1;align=center;verticalAlign=middle;whiteSpace=wrap;rounded=0;" parent="1" vertex="1">
          <mxGeometry x="230" y="242.5" width="40" height="15" as="geometry" />
        </mxCell>
        <mxCell id="o6pJe3aBnbfjn7YWIz4t-31" value="One" style="text;html=1;align=center;verticalAlign=middle;whiteSpace=wrap;rounded=0;" parent="1" vertex="1">
          <mxGeometry x="190" y="687.5" width="50" height="20" as="geometry" />
        </mxCell>
        <mxCell id="o6pJe3aBnbfjn7YWIz4t-34" value="Many" style="text;html=1;align=center;verticalAlign=middle;whiteSpace=wrap;rounded=0;" parent="1" vertex="1">
          <mxGeometry x="270" y="680" width="40" height="15" as="geometry" />
        </mxCell>
        <mxCell id="o6pJe3aBnbfjn7YWIz4t-35" value="Many" style="text;html=1;align=center;verticalAlign=middle;whiteSpace=wrap;rounded=0;" parent="1" vertex="1">
          <mxGeometry x="990" y="230" width="40" height="15" as="geometry" />
        </mxCell>
        <mxCell id="o6pJe3aBnbfjn7YWIz4t-36" value="Many" style="text;html=1;align=center;verticalAlign=middle;whiteSpace=wrap;rounded=0;" parent="1" vertex="1">
          <mxGeometry x="700" y="680" width="40" height="15" as="geometry" />
        </mxCell>
        <mxCell id="o6pJe3aBnbfjn7YWIz4t-37" value="Many" style="text;html=1;align=center;verticalAlign=middle;whiteSpace=wrap;rounded=0;" parent="1" vertex="1">
          <mxGeometry x="1515" y="257.5" width="40" height="15" as="geometry" />
        </mxCell>
        <mxCell id="o6pJe3aBnbfjn7YWIz4t-38" value="One" style="text;html=1;align=center;verticalAlign=middle;whiteSpace=wrap;rounded=0;" parent="1" vertex="1">
          <mxGeometry x="1045" y="257.5" width="50" height="20" as="geometry" />
        </mxCell>
        <mxCell id="o6pJe3aBnbfjn7YWIz4t-42" value="Many" style="text;html=1;align=center;verticalAlign=middle;whiteSpace=wrap;rounded=0;" parent="1" vertex="1">
          <mxGeometry x="1115" y="687.5" width="40" height="15" as="geometry" />
        </mxCell>
        <mxCell id="o6pJe3aBnbfjn7YWIz4t-43" value="Many" style="text;html=1;align=center;verticalAlign=middle;whiteSpace=wrap;rounded=0;" parent="1" vertex="1">
          <mxGeometry x="1130" y="252.5" width="40" height="15" as="geometry" />
        </mxCell>
        <mxCell id="o6pJe3aBnbfjn7YWIz4t-44" value="Many" style="text;html=1;align=center;verticalAlign=middle;whiteSpace=wrap;rounded=0;" parent="1" vertex="1">
          <mxGeometry x="1180" y="235" width="40" height="15" as="geometry" />
        </mxCell>
        <mxCell id="o6pJe3aBnbfjn7YWIz4t-45" value="Many" style="text;html=1;align=center;verticalAlign=middle;whiteSpace=wrap;rounded=0;" parent="1" vertex="1">
          <mxGeometry x="1550" y="687.5" width="40" height="15" as="geometry" />
        </mxCell>
        <mxCell id="o6pJe3aBnbfjn7YWIz4t-46" value="Many" style="text;html=1;align=center;verticalAlign=middle;whiteSpace=wrap;rounded=0;" parent="1" vertex="1">
          <mxGeometry x="1930" y="687.5" width="40" height="15" as="geometry" />
        </mxCell>
        <mxCell id="o6pJe3aBnbfjn7YWIz4t-47" value="Many" style="text;html=1;align=center;verticalAlign=middle;whiteSpace=wrap;rounded=0;" parent="1" vertex="1">
          <mxGeometry x="1930" y="245" width="40" height="15" as="geometry" />
        </mxCell>
        <mxCell id="o6pJe3aBnbfjn7YWIz4t-49" value="One" style="text;html=1;align=center;verticalAlign=middle;whiteSpace=wrap;rounded=0;" parent="1" vertex="1">
          <mxGeometry x="970" y="200" width="50" height="20" as="geometry" />
        </mxCell>
        <mxCell id="o6pJe3aBnbfjn7YWIz4t-50" value="Many" style="text;html=1;align=center;verticalAlign=middle;whiteSpace=wrap;rounded=0;" parent="1" vertex="1">
          <mxGeometry x="350" y="205" width="40" height="15" as="geometry" />
        </mxCell>
        <mxCell id="o6pJe3aBnbfjn7YWIz4t-53" value="One" style="text;html=1;align=center;verticalAlign=middle;whiteSpace=wrap;rounded=0;" parent="1" vertex="1">
          <mxGeometry x="1190" y="200" width="50" height="20" as="geometry" />
        </mxCell>
        <mxCell id="o6pJe3aBnbfjn7YWIz4t-54" value="Many" style="text;html=1;align=center;verticalAlign=middle;whiteSpace=wrap;rounded=0;" parent="1" vertex="1">
          <mxGeometry x="1810" y="205" width="40" height="15" as="geometry" />
        </mxCell>
      </root>
    </mxGraphModel>
  </diagram>
</mxfile>
